<svg width="512" height="512" viewBox="0 0 512 512" fill="none" xmlns="http://www.w3.org/2000/svg">
<path d="M27.68 94.368L18.736 85.296L19.184 85.408L19.216 94H17.664V82.08H17.744L26.592 91.184L26.224 91.104L26.192 82.432H27.728V94.368H27.68ZM33.7586 94.16C33.0013 94.16 32.3506 94.0107 31.8066 93.712C31.2626 93.4027 30.8413 92.9867 30.5426 92.464C30.2546 91.9307 30.1106 91.3227 30.1106 90.64C30.1106 89.9893 30.276 89.3973 30.6066 88.864C30.9373 88.3307 31.38 87.904 31.9346 87.584C32.4893 87.264 33.108 87.104 33.7906 87.104C34.6653 87.104 35.3906 87.36 35.9666 87.872C36.5426 88.384 36.932 89.088 37.1346 89.984L31.6786 91.904L31.3266 91.024L35.8066 89.392L35.4866 89.6C35.3586 89.248 35.1453 88.944 34.8466 88.688C34.548 88.4213 34.1586 88.288 33.6786 88.288C33.2733 88.288 32.9106 88.3893 32.5906 88.592C32.2706 88.784 32.02 89.0507 31.8386 89.392C31.6573 89.7333 31.5666 90.1227 31.5666 90.56C31.5666 91.0187 31.6626 91.424 31.8546 91.776C32.0466 92.1173 32.308 92.3893 32.6386 92.592C32.98 92.784 33.364 92.88 33.7906 92.88C34.0786 92.88 34.356 92.8267 34.6226 92.72C34.9 92.6133 35.156 92.4747 35.3906 92.304L36.0786 93.408C35.748 93.632 35.3746 93.8133 34.9586 93.952C34.5533 94.0907 34.1533 94.16 33.7586 94.16ZM42.0711 94.16C41.3138 94.16 40.6631 94.0107 40.1191 93.712C39.5751 93.4027 39.1538 92.9867 38.8551 92.464C38.5671 91.9307 38.4231 91.3227 38.4231 90.64C38.4231 89.9893 38.5885 89.3973 38.9191 88.864C39.2498 88.3307 39.6925 87.904 40.2471 87.584C40.8018 87.264 41.4205 87.104 42.1031 87.104C42.9778 87.104 43.7031 87.36 44.2791 87.872C44.8551 88.384 45.2445 89.088 45.4471 89.984L39.9911 91.904L39.6391 91.024L44.1191 89.392L43.7991 89.6C43.6711 89.248 43.4578 88.944 43.1591 88.688C42.8605 88.4213 42.4711 88.288 41.9911 88.288C41.5858 88.288 41.2231 88.3893 40.9031 88.592C40.5831 88.784 40.3325 89.0507 40.1511 89.392C39.9698 89.7333 39.8791 90.1227 39.8791 90.56C39.8791 91.0187 39.9751 91.424 40.1671 91.776C40.3591 92.1173 40.6205 92.3893 40.9511 92.592C41.2925 92.784 41.6765 92.88 42.1031 92.88C42.3911 92.88 42.6685 92.8267 42.9351 92.72C43.2125 92.6133 43.4685 92.4747 43.7031 92.304L44.3911 93.408C44.0605 93.632 43.6871 93.8133 43.2711 93.952C42.8658 94.0907 42.4658 94.16 42.0711 94.16ZM49.9996 94.16C49.3916 94.16 48.837 94.016 48.3356 93.728C47.845 93.4293 47.4556 93.0133 47.1676 92.48C46.8796 91.936 46.7356 91.312 46.7356 90.608C46.7356 89.872 46.885 89.2427 47.1836 88.72C47.493 88.1973 47.909 87.7973 48.4316 87.52C48.9543 87.2427 49.541 87.104 50.1916 87.104C50.7143 87.104 51.2103 87.216 51.6796 87.44C52.1596 87.664 52.533 87.9733 52.7996 88.368L52.7356 88.896V81.616H54.2076V94H52.7196V92.352L52.8796 92.768C52.5703 93.1733 52.1703 93.5093 51.6796 93.776C51.189 94.032 50.629 94.16 49.9996 94.16ZM50.4636 92.896C50.8583 92.896 51.2103 92.8267 51.5196 92.688C51.829 92.5387 52.085 92.336 52.2876 92.08C52.4903 91.824 52.6343 91.52 52.7196 91.168V89.92C52.6343 89.6 52.4796 89.3227 52.2556 89.088C52.0423 88.8427 51.781 88.6507 51.4716 88.512C51.173 88.3627 50.837 88.288 50.4636 88.288C50.0583 88.288 49.685 88.3893 49.3436 88.592C49.013 88.784 48.7463 89.0507 48.5436 89.392C48.341 89.7333 48.2396 90.128 48.2396 90.576C48.2396 91.0133 48.341 91.408 48.5436 91.76C48.7463 92.1013 49.0183 92.3787 49.3596 92.592C49.701 92.7947 50.069 92.896 50.4636 92.896ZM56.796 81.616H58.284V94H56.796V81.616ZM63.9305 94.16C63.1732 94.16 62.5225 94.0107 61.9785 93.712C61.4345 93.4027 61.0132 92.9867 60.7145 92.464C60.4265 91.9307 60.2825 91.3227 60.2825 90.64C60.2825 89.9893 60.4478 89.3973 60.7785 88.864C61.1092 88.3307 61.5518 87.904 62.1065 87.584C62.6612 87.264 63.2798 87.104 63.9625 87.104C64.8372 87.104 65.5625 87.36 66.1385 87.872C66.7145 88.384 67.1038 89.088 67.3065 89.984L61.8505 91.904L61.4985 91.024L65.9785 89.392L65.6585 89.6C65.5305 89.248 65.3172 88.944 65.0185 88.688C64.7198 88.4213 64.3305 88.288 63.8505 88.288C63.4452 88.288 63.0825 88.3893 62.7625 88.592C62.4425 88.784 62.1918 89.0507 62.0105 89.392C61.8292 89.7333 61.7385 90.1227 61.7385 90.56C61.7385 91.0187 61.8345 91.424 62.0265 91.776C62.2185 92.1173 62.4798 92.3893 62.8105 92.592C63.1518 92.784 63.5358 92.88 63.9625 92.88C64.2505 92.88 64.5278 92.8267 64.7945 92.72C65.0718 92.6133 65.3278 92.4747 65.5625 92.304L66.2505 93.408C65.9198 93.632 65.5465 93.8133 65.1305 93.952C64.7252 94.0907 64.3252 94.16 63.9305 94.16Z" fill="#FF2174"/>
</svg>
