<svg width="571" height="512" viewBox="0 0 571 512" fill="none" xmlns="http://www.w3.org/2000/svg">
<g clip-path="url(#clip0_107_2)">
<path fill-rule="evenodd" clip-rule="evenodd" d="M121.01 78H449.99C465.405 78 478 92.9572 478 111.263C478 129.569 465.405 144.526 449.99 144.526H121.01C105.595 144.526 93 129.569 93 111.263C93 92.9572 105.595 78 121.01 78ZM121.01 368.474H449.99C465.405 368.474 478 383.431 478 401.737C478 420.043 465.405 435 449.99 435H121.01C105.595 435 93 420.043 93 401.737C93 383.431 105.595 368.474 121.01 368.474ZM121.01 223.218H449.99C465.405 223.218 478 238.176 478 256.481C478 274.787 465.405 289.744 449.99 289.744H121.01C105.595 289.744 93 274.787 93 256.481C93 238.213 105.595 223.218 121.01 223.218Z" fill="#FF2174"/>
</g>
<defs>
<clipPath id="clip0_107_2">
<rect width="385" height="357" fill="white" transform="translate(93 78)"/>
</clipPath>
</defs>
</svg>
