<svg width="921" height="756" viewBox="0 0 921 756" fill="none" xmlns="http://www.w3.org/2000/svg">
<g style="mix-blend-mode:color" filter="url(#filter0_d_107_2)">
<path d="M274.801 100L213.364 35.261L216.441 36.0602L216.661 97.3739H206V12.3112H206.55L267.327 77.2785L264.8 76.7077L264.58 14.8231H275.131V100H274.801ZM316.556 98.5157C311.354 98.5157 306.884 97.4503 303.147 95.3187C299.41 93.1115 296.516 90.1429 294.465 86.4128C292.486 82.6071 291.497 78.2683 291.497 73.3965C291.497 68.753 292.633 64.5284 294.904 60.7227C297.176 56.917 300.217 53.872 304.026 51.5885C307.837 49.3049 312.087 48.1631 316.775 48.1631C322.784 48.1631 327.766 49.99 331.723 53.6437C335.679 57.2974 338.354 62.3212 339.746 68.7152L302.268 82.4166L299.85 76.1368L330.624 64.4906L328.425 65.9749C327.546 63.463 326.081 61.2936 324.029 59.4667C321.978 57.5635 319.303 56.6123 316.006 56.6123C313.222 56.6123 310.731 57.3352 308.533 58.7817C306.334 60.1518 304.613 62.055 303.367 64.4906C302.122 66.9262 301.499 69.705 301.499 72.8256C301.499 76.0989 302.158 78.9912 303.477 81.5031C304.796 83.9387 306.591 85.8797 308.862 87.3262C311.207 88.6964 313.845 89.3814 316.775 89.3814C318.754 89.3814 320.659 89.0011 322.491 88.2396C324.396 87.4782 326.155 86.4892 327.766 85.271L332.492 93.1493C330.221 94.7478 327.656 96.0416 324.799 97.0314C322.015 98.0211 319.267 98.5157 316.556 98.5157ZM373.655 98.5157C368.453 98.5157 363.983 97.4503 360.247 95.3187C356.51 93.1115 353.616 90.1429 351.564 86.4128C349.586 82.6071 348.597 78.2683 348.597 73.3965C348.597 68.753 349.733 64.5284 352.004 60.7227C354.275 56.917 357.316 53.872 361.126 51.5885C364.936 49.3049 369.186 48.1631 373.875 48.1631C379.883 48.1631 384.866 49.99 388.822 53.6437C392.779 57.2974 395.454 62.3212 396.845 68.7152L359.367 82.4166L356.949 76.1368L387.723 64.4906L385.525 65.9749C384.646 63.463 383.181 61.2936 381.129 59.4667C379.078 57.5635 376.403 56.6123 373.106 56.6123C370.322 56.6123 367.83 57.3352 365.632 58.7817C363.434 60.1518 361.713 62.055 360.466 64.4906C359.221 66.9262 358.598 69.705 358.598 72.8256C358.598 76.0989 359.258 78.9912 360.576 81.5031C361.895 83.9387 363.691 85.8797 365.962 87.3262C368.307 88.6964 370.945 89.3814 373.875 89.3814C375.853 89.3814 377.759 89.0011 379.59 88.2396C381.496 87.4782 383.254 86.4892 384.866 85.271L389.592 93.1493C387.321 94.7478 384.756 96.0416 381.898 97.0314C379.114 98.0211 376.366 98.5157 373.655 98.5157ZM428.117 98.5157C423.941 98.5157 420.131 97.4881 416.687 95.4329C413.317 93.3013 410.642 90.3327 408.664 86.527C406.685 82.6449 405.696 78.192 405.696 73.1681C405.696 67.9159 406.722 63.4252 408.774 59.6951C410.899 55.965 413.756 53.1106 417.346 51.1317C420.937 49.1529 424.967 48.1631 429.436 48.1631C433.026 48.1631 436.433 48.9624 439.657 50.5609C442.954 52.1593 445.519 54.3666 447.35 57.1832L446.911 60.9511V9H457.022V97.3739H446.801V85.6135L447.9 88.5822C445.775 91.4745 443.028 93.8722 439.657 95.7754C436.287 97.6023 432.44 98.5157 428.117 98.5157ZM431.304 89.4956C434.015 89.4956 436.433 89.0011 438.558 88.0113C440.683 86.9459 442.442 85.4994 443.833 83.6725C445.226 81.8457 446.215 79.6763 446.801 77.1644V68.2585C446.215 65.9749 445.152 63.9961 443.614 62.3212C442.148 60.5707 440.354 59.2006 438.228 58.2108C436.177 57.1454 433.869 56.6123 431.304 56.6123C428.52 56.6123 425.956 57.3352 423.611 58.7817C421.34 60.1518 419.508 62.055 418.116 64.4906C416.724 66.9262 416.027 69.7428 416.027 72.9398C416.027 76.0604 416.724 78.877 418.116 81.389C419.508 83.8245 421.376 85.8041 423.721 87.3262C426.066 88.7727 428.594 89.4956 431.304 89.4956ZM474.802 9H485.023V97.3739H474.802V9ZM523.81 98.5157C518.608 98.5157 514.138 97.4503 510.401 95.3187C506.665 93.1115 503.771 90.1429 501.719 86.4128C499.741 82.6071 498.751 78.2683 498.751 73.3965C498.751 68.753 499.887 64.5284 502.158 60.7227C504.43 56.917 507.47 53.872 511.281 51.5885C515.091 49.3049 519.34 48.1631 524.03 48.1631C530.038 48.1631 535.02 49.99 538.977 53.6437C542.934 57.2974 545.608 62.3212 547 68.7152L509.522 82.4166L507.104 76.1368L537.878 64.4906L535.68 65.9749C534.8 63.463 533.335 61.2936 531.284 59.4667C529.232 57.5635 526.558 56.6123 523.26 56.6123C520.476 56.6123 517.985 57.3352 515.787 58.7817C513.589 60.1518 511.867 62.055 510.621 64.4906C509.376 66.9262 508.753 69.705 508.753 72.8256C508.753 76.0989 509.412 78.9912 510.731 81.5031C512.05 83.9387 513.845 85.8797 516.116 87.3262C518.461 88.6964 521.099 89.3814 524.03 89.3814C526.008 89.3814 527.913 89.0011 529.745 88.2396C531.65 87.4782 533.408 86.4892 535.02 85.271L539.746 93.1493C537.475 94.7478 534.91 96.0416 532.053 97.0314C529.269 98.0211 526.521 98.5157 523.81 98.5157Z" fill="#FF2174"/>
</g>
<defs>
<filter id="filter0_d_107_2" x="202" y="9" width="349" height="99" filterUnits="userSpaceOnUse" color-interpolation-filters="sRGB">
<feFlood flood-opacity="0" result="BackgroundImageFix"/>
<feColorMatrix in="SourceAlpha" type="matrix" values="0 0 0 0 0 0 0 0 0 0 0 0 0 0 0 0 0 0 127 0" result="hardAlpha"/>
<feOffset dy="4"/>
<feGaussianBlur stdDeviation="2"/>
<feComposite in2="hardAlpha" operator="out"/>
<feColorMatrix type="matrix" values="0 0 0 0 0 0 0 0 0 0 0 0 0 0 0 0 0 0 0.25 0"/>
<feBlend mode="normal" in2="BackgroundImageFix" result="effect1_dropShadow_107_2"/>
<feBlend mode="normal" in="SourceGraphic" in2="effect1_dropShadow_107_2" result="shape"/>
</filter>
</defs>
</svg>
