<svg width="140" height="141" viewBox="0 0 140 141" fill="none" xmlns="http://www.w3.org/2000/svg">
<g clip-path="url(#clip0_124_21)" filter="url(#filter0_d_124_21)">
<path d="M69.9974 0C88.2196 0 104.725 7.44488 116.667 19.4772C128.609 31.5096 136 48.1372 136 66.5C136 84.8602 128.609 101.488 116.667 113.52C104.725 125.553 88.2196 133 69.9974 133C51.7752 133 35.2727 125.553 23.3308 113.52C11.3889 101.488 4 84.8602 4 66.5C4 48.1424 11.3889 31.5096 23.3308 19.4772C35.2727 7.44488 51.7752 0 69.9974 0ZM89.9521 70.0874C93.497 67.7806 93.4841 65.2116 89.9521 63.1698L61.5231 43.2276C58.6382 41.3988 55.6218 42.4743 55.7017 46.2721L55.8152 86.398C56.0627 90.5179 58.3984 91.6479 61.8402 89.7412L89.9521 70.0874ZM110.41 25.7817C100.071 15.3651 85.7781 8.91775 69.9974 8.91775C54.2167 8.91775 39.9288 15.3651 29.5879 25.7817C19.2496 36.2009 12.8507 50.5997 12.8507 66.5C12.8507 82.4029 19.2496 96.7991 29.5879 107.216C39.9288 117.635 54.2167 124.082 69.9974 124.082C85.7781 124.082 100.071 117.635 110.41 107.216C120.75 96.7991 127.149 82.4029 127.149 66.5C127.149 50.5971 120.75 36.2009 110.41 25.7817Z" fill="#FF2174"/>
</g>
<defs>
<filter id="filter0_d_124_21" x="0" y="0" width="140" height="141" filterUnits="userSpaceOnUse" color-interpolation-filters="sRGB">
<feFlood flood-opacity="0" result="BackgroundImageFix"/>
<feColorMatrix in="SourceAlpha" type="matrix" values="0 0 0 0 0 0 0 0 0 0 0 0 0 0 0 0 0 0 127 0" result="hardAlpha"/>
<feOffset dy="4"/>
<feGaussianBlur stdDeviation="2"/>
<feComposite in2="hardAlpha" operator="out"/>
<feColorMatrix type="matrix" values="0 0 0 0 0 0 0 0 0 0 0 0 0 0 0 0 0 0 0.25 0"/>
<feBlend mode="normal" in2="BackgroundImageFix" result="effect1_dropShadow_124_21"/>
<feBlend mode="normal" in="SourceGraphic" in2="effect1_dropShadow_124_21" result="shape"/>
</filter>
<clipPath id="clip0_124_21">
<rect width="132" height="133" fill="white" transform="translate(4)"/>
</clipPath>
</defs>
</svg>
