<svg width="921" height="756" viewBox="0 0 921 756" fill="none" xmlns="http://www.w3.org/2000/svg">
<g clip-path="url(#clip0_107_2)">
<path d="M123.998 0C139.183 0 152.937 6.2134 162.889 16.2554C172.84 26.2975 179 40.1746 179 55.5C179 70.8232 172.84 84.7004 162.889 94.7424C152.937 104.784 139.183 111 123.998 111C108.813 111 95.0605 104.784 85.109 94.7424C75.1574 84.7004 69 70.8232 69 55.5C69 40.179 75.1574 26.2975 85.109 16.2554C95.0605 6.2134 108.813 0 123.998 0ZM140.627 58.494C143.581 56.5688 143.57 54.4247 140.627 52.7207L116.936 36.0772C114.532 34.5509 112.018 35.4485 112.085 38.618L112.179 72.1066C112.386 75.545 114.332 76.4881 117.2 74.8968L140.627 58.494ZM157.675 21.5171C149.059 12.8235 137.148 7.44264 123.998 7.44264C110.847 7.44264 98.9406 12.8235 90.3232 21.5171C81.708 30.2128 76.3756 42.2299 76.3756 55.5C76.3756 68.7723 81.708 80.7872 90.3232 89.4807C98.9406 98.1765 110.847 103.557 123.998 103.557C137.148 103.557 149.059 98.1765 157.675 89.4807C166.292 80.7872 171.624 68.7723 171.624 55.5C171.624 42.2277 166.292 30.2128 157.675 21.5171Z" fill="#FF2174"/>
</g>
<defs>
<clipPath id="clip0_107_2">
<rect width="110" height="111" fill="white" transform="translate(69)"/>
</clipPath>
</defs>
</svg>
