<svg width="349" height="99" viewBox="0 0 349 99" fill="none" xmlns="http://www.w3.org/2000/svg">
<g style="mix-blend-mode:color" filter="url(#filter0_d_124_27)">
<path d="M72.8011 91L11.3637 26.261L14.4411 27.0602L14.6609 88.3739H4V3.31117H4.54953L65.3275 68.2785L62.7996 67.7077L62.5798 5.82308H73.1308V91H72.8011ZM114.556 89.5157C109.354 89.5157 104.884 88.4503 101.147 86.3187C97.4103 84.1115 94.5164 81.1429 92.4646 77.4128C90.4863 73.6071 89.4971 69.2683 89.4971 64.3965C89.4971 59.753 90.6333 55.5284 92.9042 51.7227C95.1758 47.917 98.2168 44.872 102.026 42.5885C105.837 40.3049 110.087 39.1631 114.775 39.1631C120.784 39.1631 125.766 40.99 129.723 44.6437C133.679 48.2974 136.354 53.3212 137.746 59.7152L100.268 73.4166L97.85 67.1368L128.624 55.4906L126.425 56.9749C125.546 54.463 124.081 52.2936 122.029 50.4667C119.978 48.5635 117.303 47.6123 114.006 47.6123C111.222 47.6123 108.731 48.3352 106.533 49.7817C104.334 51.1518 102.613 53.055 101.367 55.4906C100.122 57.9262 99.4986 60.705 99.4986 63.8256C99.4986 67.0989 100.158 69.9912 101.477 72.5031C102.796 74.9387 104.591 76.8797 106.862 78.3262C109.207 79.6964 111.845 80.3814 114.775 80.3814C116.754 80.3814 118.659 80.0011 120.491 79.2396C122.396 78.4782 124.155 77.4892 125.766 76.271L130.492 84.1493C128.221 85.7478 125.656 87.0416 122.799 88.0314C120.015 89.0211 117.267 89.5157 114.556 89.5157ZM171.655 89.5157C166.453 89.5157 161.983 88.4503 158.247 86.3187C154.51 84.1115 151.616 81.1429 149.564 77.4128C147.586 73.6071 146.597 69.2683 146.597 64.3965C146.597 59.753 147.733 55.5284 150.004 51.7227C152.275 47.917 155.316 44.872 159.126 42.5885C162.936 40.3049 167.186 39.1631 171.875 39.1631C177.883 39.1631 182.866 40.99 186.822 44.6437C190.779 48.2974 193.454 53.3212 194.845 59.7152L157.367 73.4166L154.949 67.1368L185.723 55.4906L183.525 56.9749C182.646 54.463 181.181 52.2936 179.129 50.4667C177.078 48.5635 174.403 47.6123 171.106 47.6123C168.322 47.6123 165.83 48.3352 163.632 49.7817C161.434 51.1518 159.713 53.055 158.466 55.4906C157.221 57.9262 156.598 60.705 156.598 63.8256C156.598 67.0989 157.258 69.9912 158.576 72.5031C159.895 74.9387 161.691 76.8797 163.962 78.3262C166.307 79.6964 168.945 80.3814 171.875 80.3814C173.853 80.3814 175.759 80.0011 177.59 79.2396C179.496 78.4782 181.254 77.4892 182.866 76.271L187.592 84.1493C185.321 85.7478 182.756 87.0416 179.898 88.0314C177.114 89.0211 174.366 89.5157 171.655 89.5157ZM226.117 89.5157C221.941 89.5157 218.131 88.4881 214.687 86.4329C211.317 84.3013 208.642 81.3327 206.664 77.527C204.685 73.6449 203.696 69.192 203.696 64.1681C203.696 58.9159 204.722 54.4252 206.774 50.6951C208.899 46.965 211.756 44.1106 215.346 42.1317C218.937 40.1529 222.967 39.1631 227.436 39.1631C231.026 39.1631 234.433 39.9624 237.657 41.5609C240.954 43.1593 243.519 45.3666 245.35 48.1832L244.911 51.9511V0H255.022V88.3739H244.801V76.6135L245.9 79.5822C243.775 82.4745 241.028 84.8722 237.657 86.7754C234.287 88.6023 230.44 89.5157 226.117 89.5157ZM229.304 80.4956C232.015 80.4956 234.433 80.0011 236.558 79.0113C238.683 77.9459 240.442 76.4994 241.833 74.6725C243.226 72.8457 244.215 70.6763 244.801 68.1644V59.2585C244.215 56.9749 243.152 54.9961 241.614 53.3212C240.148 51.5707 238.354 50.2006 236.228 49.2108C234.177 48.1454 231.869 47.6123 229.304 47.6123C226.52 47.6123 223.956 48.3352 221.611 49.7817C219.34 51.1518 217.508 53.055 216.116 55.4906C214.724 57.9262 214.027 60.7428 214.027 63.9398C214.027 67.0604 214.724 69.877 216.116 72.389C217.508 74.8245 219.376 76.8041 221.721 78.3262C224.066 79.7727 226.594 80.4956 229.304 80.4956ZM272.802 0H283.023V88.3739H272.802V0ZM321.81 89.5157C316.608 89.5157 312.138 88.4503 308.401 86.3187C304.665 84.1115 301.771 81.1429 299.719 77.4128C297.741 73.6071 296.751 69.2683 296.751 64.3965C296.751 59.753 297.887 55.5284 300.158 51.7227C302.43 47.917 305.47 44.872 309.281 42.5885C313.091 40.3049 317.34 39.1631 322.03 39.1631C328.038 39.1631 333.02 40.99 336.977 44.6437C340.934 48.2974 343.608 53.3212 345 59.7152L307.522 73.4166L305.104 67.1368L335.878 55.4906L333.68 56.9749C332.8 54.463 331.335 52.2936 329.284 50.4667C327.232 48.5635 324.558 47.6123 321.26 47.6123C318.476 47.6123 315.985 48.3352 313.787 49.7817C311.589 51.1518 309.867 53.055 308.621 55.4906C307.376 57.9262 306.753 60.705 306.753 63.8256C306.753 67.0989 307.412 69.9912 308.731 72.5031C310.05 74.9387 311.845 76.8797 314.116 78.3262C316.461 79.6964 319.099 80.3814 322.03 80.3814C324.008 80.3814 325.913 80.0011 327.745 79.2396C329.65 78.4782 331.408 77.4892 333.02 76.271L337.746 84.1493C335.475 85.7478 332.91 87.0416 330.053 88.0314C327.269 89.0211 324.521 89.5157 321.81 89.5157Z" fill="#FF2174"/>
</g>
<defs>
<filter id="filter0_d_124_27" x="0" y="0" width="349" height="99" filterUnits="userSpaceOnUse" color-interpolation-filters="sRGB">
<feFlood flood-opacity="0" result="BackgroundImageFix"/>
<feColorMatrix in="SourceAlpha" type="matrix" values="0 0 0 0 0 0 0 0 0 0 0 0 0 0 0 0 0 0 127 0" result="hardAlpha"/>
<feOffset dy="4"/>
<feGaussianBlur stdDeviation="2"/>
<feComposite in2="hardAlpha" operator="out"/>
<feColorMatrix type="matrix" values="0 0 0 0 0 0 0 0 0 0 0 0 0 0 0 0 0 0 0.25 0"/>
<feBlend mode="normal" in2="BackgroundImageFix" result="effect1_dropShadow_124_27"/>
<feBlend mode="normal" in="SourceGraphic" in2="effect1_dropShadow_124_27" result="shape"/>
</filter>
</defs>
</svg>
